<svg width="131" height="72" viewBox="0 0 131 72" fill="none" xmlns="http://www.w3.org/2000/svg">
<g filter="url(#filter0_d_43_70)">
<circle cx="95" cy="32" r="32" fill="#C8D5B9"/>
<path d="M6.08 44C5.49333 44 5 43.8 4.6 43.4C4.2 43 4 42.5067 4 41.92V14.84C4 14.2267 4.2 13.7333 4.6 13.36C5 12.96 5.49333 12.76 6.08 12.76C6.88 12.76 7.49333 13.1333 7.92 13.88L20.44 38.96H19.16L31.36 13.88C31.7867 13.1333 32.4 12.76 33.2 12.76C33.7867 12.76 34.28 12.96 34.68 13.36C35.08 13.7333 35.28 14.2267 35.28 14.84V41.92C35.28 42.5067 35.0667 43 34.64 43.4C34.24 43.8 33.76 44 33.2 44C32.6133 44 32.12 43.8 31.72 43.4C31.32 43 31.12 42.5067 31.12 41.92V20.6L31.92 20.4L21.44 41.76C20.9867 42.4533 20.3867 42.8 19.64 42.8C18.76 42.8 18.12 42.3867 17.72 41.56L7.36 20.8L8.16 20.6V41.92C8.16 42.5067 7.96 43 7.56 43.4C7.16 43.8 6.66667 44 6.08 44ZM52.8169 44.16C50.6569 44.16 48.7502 43.6933 47.0969 42.76C45.4435 41.8 44.1369 40.4933 43.1769 38.84C42.2435 37.16 41.7769 35.24 41.7769 33.08C41.7769 30.8933 42.2435 28.9733 43.1769 27.32C44.1369 25.64 45.4435 24.3333 47.0969 23.4C48.7502 22.44 50.6569 21.96 52.8169 21.96C54.9502 21.96 56.8435 22.44 58.4969 23.4C60.1502 24.3333 61.4435 25.64 62.3769 27.32C63.3369 28.9733 63.8169 30.8933 63.8169 33.08C63.8169 35.24 63.3502 37.16 62.4169 38.84C61.4835 40.4933 60.1902 41.8 58.5369 42.76C56.8835 43.6933 54.9769 44.16 52.8169 44.16ZM52.8169 40.56C54.2035 40.56 55.4302 40.24 56.4969 39.6C57.5635 38.96 58.3902 38.08 58.9769 36.96C59.5902 35.84 59.8969 34.5467 59.8969 33.08C59.8969 31.6133 59.5902 30.32 58.9769 29.2C58.3902 28.0533 57.5635 27.16 56.4969 26.52C55.4302 25.88 54.2035 25.56 52.8169 25.56C51.4302 25.56 50.2035 25.88 49.1369 26.52C48.0702 27.16 47.2302 28.0533 46.6169 29.2C46.0035 30.32 45.6969 31.6133 45.6969 33.08C45.6969 34.5467 46.0035 35.84 46.6169 36.96C47.2302 38.08 48.0702 38.96 49.1369 39.6C50.2035 40.24 51.4302 40.56 52.8169 40.56ZM77.8491 44C76.5157 44 75.3157 43.6667 74.2491 43C73.1824 42.3067 72.3424 41.3733 71.7291 40.2C71.1157 39.0267 70.8091 37.7067 70.8091 36.24V17.16C70.8091 16.5733 70.9957 16.0933 71.3691 15.72C71.7424 15.3467 72.2224 15.16 72.8091 15.16C73.3957 15.16 73.8757 15.3467 74.2491 15.72C74.6224 16.0933 74.8091 16.5733 74.8091 17.16V36.24C74.8091 37.3067 75.1024 38.2 75.6891 38.92C76.2757 39.64 76.9957 40 77.8491 40H79.2091C79.6891 40 80.0891 40.1867 80.4091 40.56C80.7557 40.9333 80.9291 41.4133 80.9291 42C80.9291 42.5867 80.7024 43.0667 80.2491 43.44C79.8224 43.8133 79.2624 44 78.5691 44H77.8491ZM68.9691 26.36C68.4091 26.36 67.9557 26.2 67.6091 25.88C67.2624 25.56 67.0891 25.16 67.0891 24.68C67.0891 24.1467 67.2624 23.72 67.6091 23.4C67.9557 23.08 68.4091 22.92 68.9691 22.92H78.2091C78.7691 22.92 79.2224 23.08 79.5691 23.4C79.9157 23.72 80.0891 24.1467 80.0891 24.68C80.0891 25.16 79.9157 25.56 79.5691 25.88C79.2224 26.2 78.7691 26.36 78.2091 26.36H68.9691ZM88.3838 44C87.7971 44 87.3038 43.8133 86.9038 43.44C86.5304 43.04 86.3438 42.5467 86.3438 41.96V24.16C86.3438 23.5467 86.5304 23.0533 86.9038 22.68C87.3038 22.3067 87.7971 22.12 88.3838 22.12C88.9971 22.12 89.4904 22.3067 89.8638 22.68C90.2371 23.0533 90.4238 23.5467 90.4238 24.16V41.96C90.4238 42.5467 90.2371 43.04 89.8638 43.44C89.4904 43.8133 88.9971 44 88.3838 44ZM88.3838 18.56C87.6638 18.56 87.0371 18.3067 86.5038 17.8C85.9971 17.2667 85.7438 16.64 85.7438 15.92C85.7438 15.2 85.9971 14.5867 86.5038 14.08C87.0371 13.5467 87.6638 13.28 88.3838 13.28C89.1038 13.28 89.7171 13.5467 90.2238 14.08C90.7571 14.5867 91.0238 15.2 91.0238 15.92C91.0238 16.64 90.7571 17.2667 90.2238 17.8C89.7171 18.3067 89.1038 18.56 88.3838 18.56ZM105.414 43.96C104.587 43.96 103.947 43.52 103.494 42.64L95.0141 24.76C94.8007 24.3067 94.7741 23.8667 94.9341 23.44C95.1207 22.9867 95.4674 22.64 95.9741 22.4C96.4274 22.16 96.8807 22.12 97.3341 22.28C97.8141 22.44 98.1741 22.7467 98.4141 23.2L106.334 40.28H104.414L112.254 23.2C112.494 22.7467 112.854 22.44 113.334 22.28C113.841 22.12 114.347 22.16 114.854 22.4C115.334 22.6133 115.654 22.9467 115.814 23.4C115.974 23.8533 115.947 24.3067 115.734 24.76L107.254 42.64C106.854 43.52 106.241 43.96 105.414 43.96Z" fill="black"/>
</g>
<defs>
<filter id="filter0_d_43_70" x="0" y="0" width="131" height="72" filterUnits="userSpaceOnUse" color-interpolation-filters="sRGB">
<feFlood flood-opacity="0" result="BackgroundImageFix"/>
<feColorMatrix in="SourceAlpha" type="matrix" values="0 0 0 0 0 0 0 0 0 0 0 0 0 0 0 0 0 0 127 0" result="hardAlpha"/>
<feOffset dy="4"/>
<feGaussianBlur stdDeviation="2"/>
<feComposite in2="hardAlpha" operator="out"/>
<feColorMatrix type="matrix" values="0 0 0 0 0 0 0 0 0 0 0 0 0 0 0 0 0 0 0.25 0"/>
<feBlend mode="normal" in2="BackgroundImageFix" result="effect1_dropShadow_43_70"/>
<feBlend mode="normal" in="SourceGraphic" in2="effect1_dropShadow_43_70" result="shape"/>
</filter>
</defs>
</svg>
